<svg xmlns="http://www.w3.org/2000/svg" width="18.033" height="14.626" viewBox="0 0 18.033 14.626"><defs><style>.a{fill:#8d8d8d;fill-rule:evenodd;}</style></defs><path class="a" d="M43.71,16.627A10.426,10.426,0,0,0,54.229,6.107v-.5a8.144,8.144,0,0,0,1.8-1.9,8.317,8.317,0,0,1-2.1.6,3.9,3.9,0,0,0,1.6-2,9.189,9.189,0,0,1-2.3.9,3.578,3.578,0,0,0-2.7-1.2,3.764,3.764,0,0,0-3.707,3.707,1.953,1.953,0,0,0,.1.8A10.358,10.358,0,0,1,39.3,2.6a3.837,3.837,0,0,0-.5,1.9A3.98,3.98,0,0,0,40.4,7.61a3.377,3.377,0,0,1-1.7-.5h0a3.661,3.661,0,0,0,3.005,3.607,3.088,3.088,0,0,1-1,.1,1.7,1.7,0,0,1-.7-.1,3.8,3.8,0,0,0,3.506,2.6,7.564,7.564,0,0,1-4.608,1.6,2.774,2.774,0,0,1-.9-.1,9.456,9.456,0,0,0,5.71,1.8" transform="translate(-38 -2)"/></svg>