<svg xmlns="http://www.w3.org/2000/svg" width="105.923" height="66.428" viewBox="0 0 105.923 66.428"><defs><style>.a{fill:#0096c2;}.b{fill:#00799e;}.c{fill:#aeb527;}.d{fill:#939926;}.e{fill:#fff;}.f{fill:#d9d7d7;}</style></defs><g transform="translate(187.641 -123.537)"><path class="a" d="M-147.209,136.541a1.179,1.179,0,0,1,.447-1.607,1.18,1.18,0,0,1,1.607.445,41.7,41.7,0,0,1,2.149,4.348,1.178,1.178,0,0,1-.628,1.545,1.18,1.18,0,0,1-1.545-.628,40.848,40.848,0,0,0-2.03-4.1Zm6.39,27.126a1.189,1.189,0,0,1-.093-.459,28.266,28.266,0,0,0-.124-2.95,1.206,1.206,0,0,1,.038-.435c-.019-.409-.045-.815-.071-1.224a1.179,1.179,0,0,1,1.094-1.281,1.19,1.19,0,0,1,.882.311,1.19,1.19,0,0,1,.882-.311,1.18,1.18,0,0,1,1.1,1.26c-.024.414-.052.83-.074,1.246a1.206,1.206,0,0,1,.038.435,28.954,28.954,0,0,0-.124,2.95,1.189,1.189,0,0,1-.093.459c-.021.742.152,1.666-.514,2.142,0,.178,0,.354,0,.533a1.218,1.218,0,0,1-2.434,0c0-.178,0-.354,0-.533-.666-.475-.492-1.4-.514-2.142Zm28.756-5.563a1.178,1.178,0,0,0,1.338.994,1.178,1.178,0,0,0,.994-1.338,36.132,36.132,0,0,0-.977-4.767,1.179,1.179,0,0,0-1.455-.815,1.183,1.183,0,0,0-.815,1.455,34.047,34.047,0,0,1,.915,4.472Zm-3.811-10.28a1.18,1.18,0,0,0,1.664.1,1.18,1.18,0,0,0,.1-1.664,11.175,11.175,0,0,0-4.246-3.024,1.182,1.182,0,0,0-1.541.659,1.177,1.177,0,0,0,.661,1.529,22.424,22.424,0,0,1,3.359,2.4Zm-9.643-3.036a1.176,1.176,0,0,0,.92-1.391,1.179,1.179,0,0,0-1.391-.92,12.783,12.783,0,0,0-4.7,2.018,1.18,1.18,0,0,0-.335,1.667,1.179,1.179,0,0,0,1.64.3,10.484,10.484,0,0,1,3.866-1.671Zm-8.352,6.462a1.18,1.18,0,0,0-.361-1.628,1.171,1.171,0,0,0-.361-.152l.126-.321a1.182,1.182,0,0,0-.663-1.531,1.192,1.192,0,0,0-.216-.064l.1-.373a1.18,1.18,0,0,0-.834-1.445,1.181,1.181,0,0,0-1.443.834c-.409,1.564-.761,3.107-1.053,4.7a1.182,1.182,0,0,0,.506,1.191l-.117.428a1.185,1.185,0,0,0,.259,1.089l-.166.4a1.18,1.18,0,0,0,.661,1.531,1.178,1.178,0,0,0,1.531-.661,25.4,25.4,0,0,1,2.035-4ZM-104.909,163a1.179,1.179,0,0,0,1.177,1.182,1.177,1.177,0,0,0,1.182-1.177c0-.72-.349-4.134-.373-4.855a1.181,1.181,0,0,0-1.222-1.136,1.181,1.181,0,0,0-1.136,1.22c.026.692.373,4.077.373,4.767Zm-1.077-11.632a1.184,1.184,0,0,0,1.369.953,1.181,1.181,0,0,0,.953-1.369,38.323,38.323,0,0,0-1.117-4.669,1.179,1.179,0,0,0-1.5-.832,1.18,1.18,0,0,0-.77,1.479,36.412,36.412,0,0,1,1.063,4.439Zm-3.913-10.482a1.178,1.178,0,0,0,1.643.281,1.18,1.18,0,0,0,.28-1.645,15.524,15.524,0,0,0-3.485-3.614,1.18,1.18,0,0,0-1.7.231,1.179,1.179,0,0,0,.269,1.645,13.473,13.473,0,0,1,2.991,3.1Zm-8.963-5.247a1.178,1.178,0,0,0,1.265-1.086,1.178,1.178,0,0,0-1.086-1.265,12.419,12.419,0,0,0-5.059.559,1.179,1.179,0,0,0-.8,1.519,1.18,1.18,0,0,0,1.5.735,10.011,10.011,0,0,1,4.182-.461Zm-9.607,4a1.182,1.182,0,0,0,0-1.669,1.181,1.181,0,0,0-1.667,0,25.638,25.638,0,0,0-3.126,3.823,1.176,1.176,0,0,0,.323,1.636,1.179,1.179,0,0,0,1.636-.323,24.067,24.067,0,0,1,2.839-3.469Zm32.42,35.865a1.178,1.178,0,0,0,1.172,1.186,1.181,1.181,0,0,0,1.186-1.172c0-.887.014-1.771.014-2.658a1.181,1.181,0,0,0-1.172-1.189,1.181,1.181,0,0,0-1.189,1.17c0,.889-.012,1.776-.012,2.663Zm-.045-9.669a1.182,1.182,0,0,0,1.239,1.12,1.18,1.18,0,0,0,1.117-1.239c-.076-1.581-.178-3.171-.321-4.75a1.179,1.179,0,0,0-1.277-1.07,1.181,1.181,0,0,0-1.072,1.279c.145,1.543.24,3.11.314,4.66Zm-1.141-11.611a1.179,1.179,0,0,0,1.343.987,1.179,1.179,0,0,0,.989-1.343c-.235-1.569-.528-3.148-.846-4.7a1.181,1.181,0,0,0-1.393-.918,1.181,1.181,0,0,0-.918,1.393c.316,1.512.6,3.057.825,4.584Zm-1.082-10.546a1.179,1.179,0,0,0,.766-1.481c-.485-1.536-1.037-3.05-1.667-4.531a1.181,1.181,0,0,0-1.55-.621,1.183,1.183,0,0,0-.621,1.55c.6,1.374,1.108,2.81,1.564,4.239a1.182,1.182,0,0,0,1.507.844Zm-6.343-11.048a1.181,1.181,0,0,0,1.648.266,1.179,1.179,0,0,0,.266-1.645,22.737,22.737,0,0,0-3.3-3.694,1.181,1.181,0,0,0-1.688.1,1.181,1.181,0,0,0,.121,1.664,19.411,19.411,0,0,1,2.948,3.309Zm-8.642-6.35a1.184,1.184,0,0,0,1.426-.865,1.18,1.18,0,0,0-.865-1.426,16.483,16.483,0,0,0-5.054-.4,1.181,1.181,0,0,0-1.082,1.293,1.178,1.178,0,0,0,1.291,1.056,15.574,15.574,0,0,1,4.284.342Zm-10.315,1.885a1.178,1.178,0,0,0,.323-1.633,1.179,1.179,0,0,0-1.636-.326,22.1,22.1,0,0,0-3.78,3.233,1.181,1.181,0,0,0,.05,1.667,1.179,1.179,0,0,0,1.667-.052,20.294,20.294,0,0,1,3.376-2.888Zm-7.36,8.371a1.179,1.179,0,0,0-.447-1.607,1.18,1.18,0,0,0-1.607.445,41.691,41.691,0,0,0-2.149,4.348,1.178,1.178,0,0,0,.628,1.545,1.18,1.18,0,0,0,1.545-.628,40.848,40.848,0,0,1,2.03-4.1ZM-166.123,158.1a1.178,1.178,0,0,1-1.338.994,1.178,1.178,0,0,1-.994-1.338,36.137,36.137,0,0,1,.977-4.767,1.179,1.179,0,0,1,1.455-.815,1.181,1.181,0,0,1,.815,1.455,34.052,34.052,0,0,0-.915,4.472Zm3.813-10.28a1.183,1.183,0,0,1-1.667.1,1.18,1.18,0,0,1-.1-1.664,11.174,11.174,0,0,1,4.246-3.024,1.182,1.182,0,0,1,1.541.659,1.177,1.177,0,0,1-.661,1.529,22.311,22.311,0,0,0-3.357,2.4Zm9.64-3.036a1.176,1.176,0,0,1-.92-1.391,1.18,1.18,0,0,1,1.391-.92,12.783,12.783,0,0,1,4.7,2.018,1.18,1.18,0,0,1,.335,1.667,1.179,1.179,0,0,1-1.64.3,10.467,10.467,0,0,0-3.866-1.671Zm8.352,6.462a1.18,1.18,0,0,1,.361-1.628,1.171,1.171,0,0,1,.361-.152l-.126-.321a1.182,1.182,0,0,1,.663-1.531,1.192,1.192,0,0,1,.216-.064l-.1-.373a1.18,1.18,0,0,1,.834-1.445,1.181,1.181,0,0,1,1.443.834c.409,1.564.761,3.107,1.053,4.7a1.182,1.182,0,0,1-.506,1.191l.117.428a1.178,1.178,0,0,1-.259,1.089l.166.4a1.18,1.18,0,0,1-.661,1.531,1.178,1.178,0,0,1-1.531-.661,25.4,25.4,0,0,0-2.035-4Zm-28.621,9.058a1.178,1.178,0,0,1-1.177,1.179,1.177,1.177,0,0,1-1.182-1.177c0-.72.012-1.438.036-2.159a1.181,1.181,0,0,1,1.222-1.136,1.181,1.181,0,0,1,1.136,1.22c-.026.692-.036,1.381-.036,2.073Zm.739-8.939a1.184,1.184,0,0,1-1.369.953,1.181,1.181,0,0,1-.953-1.369,38.784,38.784,0,0,1,1.117-4.669,1.179,1.179,0,0,1,1.5-.832,1.18,1.18,0,0,1,.77,1.479,36.412,36.412,0,0,0-1.063,4.439Zm3.913-10.482a1.178,1.178,0,0,1-1.643.281,1.18,1.18,0,0,1-.28-1.645,15.524,15.524,0,0,1,3.485-3.614,1.18,1.18,0,0,1,1.7.231,1.179,1.179,0,0,1-.269,1.645,13.473,13.473,0,0,0-2.991,3.1Zm8.963-5.247a1.178,1.178,0,0,1-1.265-1.086,1.178,1.178,0,0,1,1.086-1.265,12.41,12.41,0,0,1,5.059.559,1.178,1.178,0,0,1,.8,1.519,1.18,1.18,0,0,1-1.5.735,10.011,10.011,0,0,0-4.182-.461Zm9.607,4a1.182,1.182,0,0,1,0-1.669,1.181,1.181,0,0,1,1.666,0,25.64,25.64,0,0,1,3.126,3.823,1.176,1.176,0,0,1-.323,1.636,1.179,1.179,0,0,1-1.636-.323,24.067,24.067,0,0,0-2.839-3.469Zm-32.42,35.865a1.177,1.177,0,0,1-1.172,1.186,1.18,1.18,0,0,1-1.186-1.172c0-.887-.012-1.771-.012-2.658a1.179,1.179,0,0,1,1.17-1.189,1.181,1.181,0,0,1,1.189,1.17c0,.889.012,1.776.012,2.663Zm.045-9.669a1.181,1.181,0,0,1-1.236,1.12,1.18,1.18,0,0,1-1.12-1.239c.076-1.581.178-3.171.321-4.75a1.179,1.179,0,0,1,1.277-1.07,1.181,1.181,0,0,1,1.072,1.279c-.145,1.543-.24,3.11-.314,4.66Zm1.141-11.611a1.179,1.179,0,0,1-1.343.987,1.179,1.179,0,0,1-.989-1.343c.235-1.569.528-3.148.846-4.7a1.181,1.181,0,0,1,1.393-.918,1.181,1.181,0,0,1,.918,1.393c-.316,1.512-.6,3.057-.825,4.584Zm1.082-10.546a1.179,1.179,0,0,1-.766-1.481c.485-1.536,1.037-3.05,1.667-4.531a1.181,1.181,0,0,1,1.55-.621,1.183,1.183,0,0,1,.62,1.55c-.6,1.374-1.108,2.81-1.564,4.239a1.181,1.181,0,0,1-1.507.844Zm6.343-11.048a1.181,1.181,0,0,1-1.647.266,1.179,1.179,0,0,1-.266-1.645,22.737,22.737,0,0,1,3.295-3.694,1.181,1.181,0,0,1,1.688.1,1.181,1.181,0,0,1-.121,1.664,19.411,19.411,0,0,0-2.948,3.309Zm8.642-6.35a1.184,1.184,0,0,1-1.426-.865,1.18,1.18,0,0,1,.865-1.426,16.483,16.483,0,0,1,5.054-.4,1.181,1.181,0,0,1,1.082,1.293,1.178,1.178,0,0,1-1.291,1.056,15.574,15.574,0,0,0-4.284.342Zm10.318,1.885a1.177,1.177,0,0,1-.326-1.633,1.179,1.179,0,0,1,1.636-.326,22.007,22.007,0,0,1,3.78,3.233,1.181,1.181,0,0,1-.05,1.667,1.179,1.179,0,0,1-1.667-.052,20.375,20.375,0,0,0-3.373-2.888Z" transform="translate(4.316 0)"/><path class="b" d="M-165.363,157.547v9.961a1.137,1.137,0,0,0,1.12-1.167c0-.178,0-.354,0-.533.666-.475.492-1.4.514-2.142a1.189,1.189,0,0,0,.093-.459,28.95,28.95,0,0,1,.124-2.95,1.206,1.206,0,0,0-.038-.435c.021-.416.05-.832.074-1.246a1.18,1.18,0,0,0-1.1-1.26,1.188,1.188,0,0,0-.785.231Zm26.933.556a1.178,1.178,0,0,0,1.338.994,1.178,1.178,0,0,0,.994-1.338,36.132,36.132,0,0,0-.977-4.767,1.179,1.179,0,0,0-1.455-.815,1.183,1.183,0,0,0-.815,1.455,34.047,34.047,0,0,1,.915,4.472Zm-3.811-10.28a1.18,1.18,0,0,0,1.664.1,1.18,1.18,0,0,0,.1-1.664,11.175,11.175,0,0,0-4.246-3.024,1.182,1.182,0,0,0-1.541.659,1.177,1.177,0,0,0,.661,1.529,22.423,22.423,0,0,1,3.359,2.4Zm-9.642-3.036a1.176,1.176,0,0,0,.92-1.391,1.179,1.179,0,0,0-1.391-.92,12.783,12.783,0,0,0-4.7,2.018,1.18,1.18,0,0,0-.335,1.667,1.179,1.179,0,0,0,1.64.3,10.484,10.484,0,0,1,3.866-1.671Zm-8.352,6.462a1.18,1.18,0,0,0-.361-1.628,1.171,1.171,0,0,0-.361-.152l.126-.321a1.182,1.182,0,0,0-.663-1.531,1.192,1.192,0,0,0-.216-.064l.1-.373a1.18,1.18,0,0,0-.834-1.445,1.181,1.181,0,0,0-1.443.834c-.409,1.564-.761,3.107-1.053,4.7a1.182,1.182,0,0,0,.506,1.191l-.117.428a1.185,1.185,0,0,0,.259,1.089l-.166.4a1.18,1.18,0,0,0,.661,1.531,1.178,1.178,0,0,0,1.531-.661,25.4,25.4,0,0,1,2.035-4ZM-131.277,163a1.179,1.179,0,0,0,1.177,1.182,1.177,1.177,0,0,0,1.182-1.177c0-.72-.349-4.134-.373-4.855a1.181,1.181,0,0,0-1.222-1.136,1.181,1.181,0,0,0-1.136,1.22c.026.692.373,4.077.373,4.767Zm-1.077-11.632a1.184,1.184,0,0,0,1.369.953,1.181,1.181,0,0,0,.953-1.369,38.326,38.326,0,0,0-1.117-4.669,1.179,1.179,0,0,0-1.5-.832,1.18,1.18,0,0,0-.77,1.479,36.412,36.412,0,0,1,1.063,4.439Zm-3.913-10.482a1.178,1.178,0,0,0,1.643.281,1.18,1.18,0,0,0,.28-1.645,15.524,15.524,0,0,0-3.485-3.614,1.18,1.18,0,0,0-1.7.231,1.179,1.179,0,0,0,.269,1.645,13.473,13.473,0,0,1,2.991,3.1Zm-8.963-5.247a1.178,1.178,0,0,0,1.265-1.086,1.178,1.178,0,0,0-1.086-1.265,12.419,12.419,0,0,0-5.059.559,1.179,1.179,0,0,0-.8,1.519,1.18,1.18,0,0,0,1.5.735,10.011,10.011,0,0,1,4.182-.461Zm-9.607,4a1.182,1.182,0,0,0,0-1.669,1.181,1.181,0,0,0-1.667,0,25.638,25.638,0,0,0-3.126,3.823,1.176,1.176,0,0,0,.323,1.636,1.179,1.179,0,0,0,1.636-.323,24.067,24.067,0,0,1,2.839-3.469Zm32.42,35.865a1.178,1.178,0,0,0,1.172,1.186,1.181,1.181,0,0,0,1.186-1.172c0-.887.014-1.771.014-2.658a1.181,1.181,0,0,0-1.172-1.189,1.181,1.181,0,0,0-1.189,1.17c0,.889-.012,1.776-.012,2.663Zm-.045-9.669a1.182,1.182,0,0,0,1.239,1.12,1.18,1.18,0,0,0,1.117-1.239c-.076-1.581-.178-3.171-.321-4.75a1.179,1.179,0,0,0-1.277-1.07,1.181,1.181,0,0,0-1.072,1.279c.145,1.543.24,3.11.314,4.66Zm-1.141-11.611a1.179,1.179,0,0,0,1.343.987,1.179,1.179,0,0,0,.989-1.343c-.235-1.569-.528-3.148-.846-4.7a1.181,1.181,0,0,0-1.393-.918,1.181,1.181,0,0,0-.918,1.393c.316,1.512.6,3.057.825,4.584Zm-1.082-10.546a1.179,1.179,0,0,0,.766-1.481c-.485-1.536-1.037-3.05-1.667-4.531a1.181,1.181,0,0,0-1.55-.621,1.183,1.183,0,0,0-.62,1.55c.6,1.374,1.108,2.81,1.564,4.239a1.182,1.182,0,0,0,1.507.844Zm-6.343-11.048a1.181,1.181,0,0,0,1.648.266,1.179,1.179,0,0,0,.266-1.645,22.737,22.737,0,0,0-3.3-3.694,1.181,1.181,0,0,0-1.688.1,1.181,1.181,0,0,0,.121,1.664,19.411,19.411,0,0,1,2.948,3.309Zm-8.642-6.35a1.184,1.184,0,0,0,1.426-.865,1.18,1.18,0,0,0-.865-1.426,16.483,16.483,0,0,0-5.054-.4,1.181,1.181,0,0,0-1.082,1.293,1.178,1.178,0,0,0,1.291,1.056,15.574,15.574,0,0,1,4.284.342Zm-10.315,1.885a1.178,1.178,0,0,0,.323-1.633,1.179,1.179,0,0,0-1.636-.326,22.1,22.1,0,0,0-3.78,3.233,1.181,1.181,0,0,0,.05,1.667,1.179,1.179,0,0,0,1.667-.052,20.294,20.294,0,0,1,3.376-2.888Zm-7.36,8.371a1.179,1.179,0,0,0-.447-1.607,1.18,1.18,0,0,0-1.607.445,41.691,41.691,0,0,0-2.149,4.348,1.178,1.178,0,0,0,.628,1.545,1.18,1.18,0,0,0,1.545-.628,40.848,40.848,0,0,1,2.03-4.1Z" transform="translate(30.684 0)"/><path class="c" d="M-175.756,150.376c-5.7.233-5.71-2.211-5.72-4.85,0-1.113-.007-2.277-.785-2.993,0,0-.231-.354-.242-.392a.875.875,0,0,1,.585-1.091,5.561,5.561,0,0,1,5.444.868,6.587,6.587,0,0,1,1.942,3.16,15.431,15.431,0,0,1,.5,4.317,4.687,4.687,0,0,1,1.236-1.434,4.52,4.52,0,0,1,3.423-.785,8.191,8.191,0,0,1,1.519.349.878.878,0,0,1,.333,1.472c-1.747,1.878.169,5.867-6.39,4.738l.126,4.465a.882.882,0,0,1-.853.9.882.882,0,0,1-.9-.853l-.219-7.871Z" transform="translate(7.024 23.66)"/><path class="d" d="M-145.863,158.2a.878.878,0,0,1-.851.9.882.882,0,0,1-.9-.853l-.221-7.871c-5.7.233-5.708-2.211-5.718-4.85a8.086,8.086,0,0,0-.143-1.831c-.223-.92-.735-1.056-.884-1.555A.876.876,0,0,1-154,141.05a5.565,5.565,0,0,1,5.447.868,6.6,6.6,0,0,1,1.942,3.16,12.066,12.066,0,0,1,.48,3.5h0v.021l.021.792a4.726,4.726,0,0,1,1.239-1.434,5.3,5.3,0,0,1,4.942-.435.877.877,0,0,1,.563,1.105.885.885,0,0,1-.231.366c-1.778,1.911.169,5.886-6.39,4.738l.124,4.465Z" transform="translate(45.483 23.66)"/><path class="e" d="M-167.649,154.162v-7.722a3.53,3.53,0,0,1,3.521-3.521h3.828a3.525,3.525,0,0,1,3.518,3.521v7.722Z" transform="translate(27.536 26.697)"/><path class="f" d="M-165.363,142.92h1.914a3.525,3.525,0,0,1,3.518,3.521v7.722h-5.432V142.92Z" transform="translate(30.684 26.697)"/><path class="e" d="M-109.776,148.957q12.941.6,25.768,1.8a2.517,2.517,0,0,1,2.28,2.734,2.517,2.517,0,0,1-2.734,2.282q-12.656-1.184-25.53-1.783-12.592-.585-25.661-.587-12.577,0-24.682.542-12.406.553-24.572,1.65a2.518,2.518,0,0,1-2.724-2.292,2.518,2.518,0,0,1,2.292-2.724q12.363-1.109,24.789-1.667c17-.758,33.794-.744,50.775.045Z" transform="translate(0 34.182)"/><path class="f" d="M-140.46,148.956q12.941.6,25.768,1.8a2.517,2.517,0,0,1,2.28,2.734,2.517,2.517,0,0,1-2.734,2.282q-12.656-1.184-25.53-1.783-12.121-.563-24.686-.587v-5.047c8.287.014,16.572.214,24.9.6Z" transform="translate(30.684 34.183)"/></g></svg>