<svg xmlns="http://www.w3.org/2000/svg" width="101.623" height="72.226" viewBox="0 0 101.623 72.226"><defs><style>.a,.e{fill:#d9d7d7;}.b{fill:#aeb527;}.c{fill:#939926;}.d{fill:#fff;}.e,.f{fill-rule:evenodd;}.f{fill:#ba0006;}.g{fill:#fda000;}</style></defs><g transform="translate(-219.476 -341.941)"><path class="a" d="M250.777,355.289a28.237,28.237,0,0,1,5.9-6.211,47.012,47.012,0,0,1,13.669-7.05,1.549,1.549,0,0,1,1.638.4l3.255,3.311a1.548,1.548,0,1,1-2.207,2.171l-2.589-2.63a42.662,42.662,0,0,0-11.849,6.235,23.91,23.91,0,0,0-7.4,9.43,26.387,26.387,0,0,0-.416-5.657Z" transform="translate(44.79)"/><path class="b" d="M262.839,364.747c0-2.006,6.393-2.278,6.393,0v17.192c0,1.318-4.568,1.826-6.974,1.826s-5.81-.508-5.81-1.826l6.391-17.192Zm14.895,0c0-2.006-6.391-2.278-6.391,0v17.192c0,1.318,4.565,1.826,6.974,1.826s5.81-.508,5.81-1.826l-6.393-17.192Zm42.35,11.562-17.8-11.024c-2.441-1.974-9.17-2.244-6.393,0l19.054,15.4c4.577,3.365,7.92-1.928,5.137-4.376ZM294.121,365.1c-1.607-1.976-8.217-2.244-6.393,0l13.759,16.939c1.055,1.3,6.026,1.8,8.433,1.8s5.406-.5,4.351-1.8L294.121,365.1Zm-8.277-.177c-.761-1.989-7.259-2.258-6.393,0l6.537,17.043c.5,1.306,5.258,1.809,7.667,1.809s5.618-.5,5.117-1.809L285.843,364.92Zm-65.352,11.389,17.8-11.024c2.441-1.974,9.17-2.244,6.393,0l-19.054,15.4c-4.578,3.365-7.92-1.928-5.137-4.376ZM246.455,365.1c1.607-1.976,8.217-2.244,6.393,0l-13.759,16.939c-1.055,1.3-6.026,1.8-8.433,1.8s-5.406-.5-4.351-1.8l20.15-16.939Zm8.277-.177c.761-1.989,7.259-2.258,6.391,0l-6.534,17.043c-.5,1.306-5.261,1.809-7.667,1.809s-5.618-.5-5.117-1.809l12.928-17.043Z" transform="translate(0 30.334)"/><path class="c" d="M240.945,363.957V382.51c1.082.9,4.629,1.254,6.651,1.254,2.407,0,5.81-.508,5.81-1.826l-6.393-17.192c0-1.733-4.77-2.171-6.068-.79Zm48.418,12.352-17.8-11.024c-2.441-1.974-9.17-2.244-6.393,0l19.054,15.4c4.578,3.364,7.92-1.928,5.137-4.376ZM263.4,365.1c-1.607-1.976-8.217-2.244-6.393,0l13.759,16.939c1.055,1.3,6.026,1.8,8.433,1.8s5.406-.5,4.351-1.8L263.4,365.1Zm-8.277-.177c-.761-1.989-7.259-2.258-6.393,0l6.537,17.043c.5,1.306,5.258,1.809,7.667,1.809s5.618-.5,5.117-1.809L255.122,364.92Z" transform="translate(30.721 30.334)"/><path class="d" d="M228.521,364.75a1.553,1.553,0,0,1,0-3.107h61.141a1.553,1.553,0,1,1,0,3.107Z" transform="translate(10.723 28.193)"/><path class="a" d="M240.945,361.643h28.719a1.553,1.553,0,1,1,0,3.107H240.945v-3.107Z" transform="translate(30.721 28.193)"/><path class="d" d="M230.608,369.035c-3.248,0-4.791-3.727-4.791-6.515S227.363,356,230.608,356h60.266c3.248,0,4.791,3.729,4.791,6.517s-1.544,6.515-4.791,6.515Z" transform="translate(9.073 20.122)"/><path class="a" d="M240.945,356h28.282c3.248,0,4.792,3.729,4.792,6.517s-1.544,6.515-4.792,6.515H240.945V356Z" transform="translate(30.721 20.122)"/><path class="e" d="M236.625,353h32.286a1.217,1.217,0,0,1,1.213,1.215V357a1.215,1.215,0,0,1-1.213,1.213H236.625A1.215,1.215,0,0,1,235.412,357v-2.786A1.217,1.217,0,0,1,236.625,353Z" transform="translate(22.804 15.829)"/><path class="f" d="M240.945,353h20.048a1.217,1.217,0,0,1,1.213,1.215V357a1.215,1.215,0,0,1-1.213,1.213H240.945V353Z" transform="translate(30.721 15.829)"/><path class="d" d="M274.8,361.492a1.523,1.523,0,0,1,.209.775,1.554,1.554,0,0,1-1.553,1.551H237.976c-1.86,0-2.8-1.4-3.379-2.944a16.288,16.288,0,0,1-1.087-5.713,14.422,14.422,0,0,1,1.1-5.521c.627-1.532,1.51-2.9,3.362-2.9h17.843a1.611,1.611,0,0,1,.438.063l16.125,13.908a1.73,1.73,0,0,0,1.432.778Z" transform="translate(20.082 6.871)"/><path class="a" d="M264.166,361.492a1.523,1.523,0,0,1,.209.775,1.554,1.554,0,0,1-1.553,1.551H240.945V346.743h4.235a1.611,1.611,0,0,1,.438.063l16.125,13.908a1.73,1.73,0,0,0,1.432.778Z" transform="translate(30.721 6.871)"/><path class="d" d="M228.521,357.554a1.553,1.553,0,0,1,0-3.107h61.141a1.553,1.553,0,1,1,0,3.107Z" transform="translate(10.723 17.895)"/><path class="a" d="M240.945,354.447h28.719a1.553,1.553,0,1,1,0,3.107H240.945v-3.107Z" transform="translate(30.721 17.895)"/><path class="a" d="M243.956,346.827a1.6,1.6,0,0,1,.075-3.2H247.4l.134,0h12.522l.129,0h3.369a1.6,1.6,0,0,1,.063,3.206,29.185,29.185,0,0,1,2.2,9.111,31.49,31.49,0,0,1-.693,9.084,4.56,4.56,0,0,1-1.177,2.261,3.289,3.289,0,0,1-2.382,1H246.022a3.267,3.267,0,0,1-2.373-.992,4.652,4.652,0,0,1-1.179-2.241,30.678,30.678,0,0,1-.8-9.211,26.445,26.445,0,0,1,2.244-8.917l.044-.1Z" transform="translate(31.656 2.404)"/><path class="g" d="M258.176,344.941H245.639a22.823,22.823,0,0,0-1.079,2.326,23.2,23.2,0,0,0-1.583,6.911,27.63,27.63,0,0,0,.727,8.258,1.516,1.516,0,0,0,.326.7.173.173,0,0,0,.107.053h15.539a.185.185,0,0,0,.117-.058,1.406,1.406,0,0,0,.311-.669,28.366,28.366,0,0,0,.63-8.183,25.944,25.944,0,0,0-1.758-7.633,11.717,11.717,0,0,0-.8-1.707Z" transform="translate(33.541 4.293)"/><path class="a" d="M245.274,355.489a3.209,3.209,0,0,1,2.4-3.107v-1.145h-1.592a.8.8,0,1,1,0-1.6h4.791a.8.8,0,0,1,0,1.6h-1.595v1.145a3.211,3.211,0,0,1,2.407,3.107v1.672h-6.415v-1.672Z" transform="translate(36.916 11.01)"/></g></svg>