<svg xmlns="http://www.w3.org/2000/svg" width="94.227" height="63.525" viewBox="0 0 94.227 63.525"><defs><style>.a,.h{fill:#fff;}.b,.i{fill:#d1cece;}.c{fill:#0086b7;}.d{fill:#00678e;}.e{fill:#ee4e1a;}.f{fill:#fb8b05;}.g{fill:#df7615;}.h,.i,.l,.m{fill-rule:evenodd;}.j{fill:#a6a823;}.k{fill:#878a26;}.l{fill:#ed6a12;}.m{fill:#d74d18;}</style></defs><g transform="translate(-502.195 -173.521)"><path class="a" d="M547.159,193.35a.737.737,0,1,1,1.473,0v5.567a.737.737,0,1,1-1.473,0V193.35Zm-37.711-7.908a.738.738,0,0,1,0-1.475H538.7v1.475Zm40.485-1.475h29.331a.738.738,0,0,1,0,1.475H549.933v-1.475ZM507.85,188.39a.737.737,0,1,1,0-1.473H538.7v1.473Zm42.084-1.473h30.931a.737.737,0,1,1,0,1.473H549.933v-1.473Zm28.084,2.795a.738.738,0,0,1,1.476,0v9.2a.738.738,0,0,1-1.476,0v-9.2Zm-3.538,0a.737.737,0,1,1,1.473,0v9.2a.737.737,0,1,1-1.473,0v-9.2Zm-3.54,0a.737.737,0,1,1,1.473,0v9.2a.737.737,0,1,1-1.473,0v-9.2Zm-3.54,0a.738.738,0,0,1,1.475,0v9.2a.738.738,0,0,1-1.475,0v-9.2Zm-3.54,0a.738.738,0,0,1,1.475,0v9.2a.738.738,0,0,1-1.475,0v-9.2Zm-40.483,0a.738.738,0,0,1,1.475,0v9.2a.738.738,0,0,1-1.475,0v-9.2Zm-3.538,0a.737.737,0,1,1,1.473,0v9.2a.737.737,0,1,1-1.473,0v-9.2Zm-3.54,0a.738.738,0,0,1,1.475,0v9.2a.738.738,0,0,1-1.475,0v-9.2Zm-3.54,0a.738.738,0,0,1,1.475,0v9.2a.738.738,0,0,1-1.475,0v-9.2Zm-3.54,0a.738.738,0,0,1,1.475,0v9.2a.738.738,0,0,1-1.475,0v-9.2Zm30.86,3.638a.738.738,0,0,1,1.475,0v5.567a.738.738,0,0,1-1.475,0V193.35Zm3.54,0a.737.737,0,1,1,1.473,0v5.567a.737.737,0,1,1-1.473,0V193.35Z" transform="translate(5.315 11.292)"/><path class="b" d="M527.835,193.35a.737.737,0,1,1,1.473,0v5.567a.737.737,0,1,1-1.473,0V193.35Zm-2.849-.735v7.036l.046,0a.737.737,0,0,0,.737-.737V193.35a.735.735,0,0,0-.737-.737l-.046,0Zm5.623-8.649H559.94a.738.738,0,0,1,0,1.475H530.609v-1.475Zm0,2.951H561.54a.737.737,0,1,1,0,1.473H530.609v-1.473Zm28.084,2.795a.738.738,0,0,1,1.476,0v9.2a.738.738,0,0,1-1.476,0v-9.2Zm-3.538,0a.737.737,0,1,1,1.473,0v9.2a.737.737,0,1,1-1.473,0v-9.2Zm-3.54,0a.737.737,0,1,1,1.473,0v9.2a.737.737,0,1,1-1.473,0v-9.2Zm-3.54,0a.738.738,0,0,1,1.475,0v9.2a.738.738,0,0,1-1.475,0v-9.2Zm-3.54,0a.738.738,0,0,1,1.475,0v9.2a.738.738,0,0,1-1.475,0v-9.2Z" transform="translate(24.639 11.292)"/><path class="c" d="M516.642,186.768a3.322,3.322,0,1,1,6.645,0v4.693h5.263v1.659h11v-1.659h5.282v-4.693a3.322,3.322,0,1,1,6.645,0v12.072a3.322,3.322,0,1,1-6.645,0V194.41h-.986v5.375a2.215,2.215,0,1,1-4.431,0V194.41H528.712v5.317a2.215,2.215,0,1,1-4.431,0V194.41h-.995v4.431a3.322,3.322,0,1,1-6.645,0V186.768Z" transform="translate(15.619 10.729)"/><path class="d" d="M524.986,193.12h5.548v-1.659h5.282v-4.693a3.322,3.322,0,1,1,6.645,0v12.072a3.322,3.322,0,1,1-6.645,0V194.41h-.986v5.375a2.215,2.215,0,1,1-4.431,0V194.41h-5.413v-1.29Z" transform="translate(24.639 10.729)"/><path class="a" d="M525.1,173.521h11.042l.108,0h2.978a1.475,1.475,0,0,1,.144,2.943,25.82,25.82,0,0,1,1.91,7.977,27.877,27.877,0,0,1-.612,8.029,4.108,4.108,0,0,1-1.053,2.023,2.97,2.97,0,0,1-1.546.841V191.21h-.15a24.626,24.626,0,0,0,.422-6.56,22.934,22.934,0,0,0-1.8-7.325,3.876,3.876,0,0,0-.437-.845l-8.651-.006H525.1c-.019.027-.2.431-.393.841h0l-.025.056a20.541,20.541,0,0,0-1.871,7.19,23.963,23.963,0,0,0,.5,6.649h-.223v4.108a2.994,2.994,0,0,1-1.448-.82l-.006,0-.027-.031a4.186,4.186,0,0,1-1.026-1.969h0a27.079,27.079,0,0,1-.708-8.141,23.283,23.283,0,0,1,1.621-7.024c.112-.283.229-.574.352-.866a1.475,1.475,0,0,1,.171-2.941H525l.1,0Z" transform="translate(19.045)"/><path class="e" d="M524.986,173.521h5.567l.108,0h2.978a1.475,1.475,0,0,1,.144,2.943,25.82,25.82,0,0,1,1.91,7.977,27.877,27.877,0,0,1-.612,8.029,4.108,4.108,0,0,1-1.053,2.023,2.97,2.97,0,0,1-1.546.841V191.21h-.15a24.626,24.626,0,0,0,.422-6.56,22.934,22.934,0,0,0-1.8-7.325,3.876,3.876,0,0,0-.437-.845l-5.536,0v-2.955Z" transform="translate(24.639)"/><path class="b" d="M524.986,173.521h5.567l.108,0h2.978a1.475,1.475,0,0,1,.144,2.943,25.82,25.82,0,0,1,1.91,7.977,27.877,27.877,0,0,1-.612,8.029,4.108,4.108,0,0,1-1.053,2.023,2.97,2.97,0,0,1-1.546.841V191.21h-.15a24.626,24.626,0,0,0,.422-6.56,22.934,22.934,0,0,0-1.8-7.325,3.876,3.876,0,0,0-.437-.845l-5.536,0v-2.955Z" transform="translate(24.639)"/><path class="f" d="M521.675,189.963h15.154a25.582,25.582,0,0,0,.439-6.8,23.835,23.835,0,0,0-1.865-7.6,3.944,3.944,0,0,0-.453-.878l-8.974-.006h-2.448a7.9,7.9,0,0,0-.437.932,21.3,21.3,0,0,0-1.942,7.459,24.72,24.72,0,0,0,.525,6.9Z" transform="translate(20.431 1.248)"/><path class="g" d="M524.986,189.96h7.635a25.582,25.582,0,0,0,.439-6.8,23.835,23.835,0,0,0-1.865-7.6,3.944,3.944,0,0,0-.453-.878l-5.756,0V189.96Z" transform="translate(24.639 1.25)"/><path class="a" d="M527.2,181.2v2.529a.738.738,0,1,1-1.475,0V181.2h-1.374a.737.737,0,1,1,0-1.473h4.223a.737.737,0,1,1,0,1.473Z" transform="translate(23.159 6.712)"/><path class="h" d="M523.477,181.54h13.7a2.151,2.151,0,0,1,1.688.795,4.219,4.219,0,0,1,.77,1.475,16.317,16.317,0,0,1,.839,4.818,13.214,13.214,0,0,1-.849,4.87,4.871,4.871,0,0,1-.774,1.43,2.112,2.112,0,0,1-1.673.805h-13.7a2.106,2.106,0,0,1-1.667-.8,4.764,4.764,0,0,1-.778-1.44,14.133,14.133,0,0,1-.945-4.968,12.456,12.456,0,0,1,.953-4.772,5.376,5.376,0,0,1,.77-1.4,2.072,2.072,0,0,1,1.667-.81Z" transform="translate(19.343 8.669)"/><path class="b" d="M525.725,181.2v2.529a.739.739,0,0,1-.739.739h0V179.73H527.1a.737.737,0,1,1,0,1.473Z" transform="translate(24.639 6.712)"/><path class="i" d="M524.986,181.54h6.9a2.151,2.151,0,0,1,1.688.795,4.219,4.219,0,0,1,.77,1.475,16.317,16.317,0,0,1,.839,4.818,13.214,13.214,0,0,1-.849,4.87,4.871,4.871,0,0,1-.774,1.43,2.112,2.112,0,0,1-1.673.805h-6.9V181.54Z" transform="translate(24.639 8.669)"/><path class="j" d="M506.647,197.119a1.472,1.472,0,0,1-.173-2.939q10.348-.618,20.965-.936,10.638-.315,21.044-.316,10.829,0,21.876.343,11.029.34,21.783,1.011a1.471,1.471,0,0,1-.173,2.936q-10.841-.674-21.689-1.011-10.667-.328-21.8-.331-10.716,0-20.965.306-10.429.309-20.871.936Zm49.442.972c0-1.89-5.821-2.146-5.821,0v16.191c0,1.24,4.158,1.719,6.349,1.719s5.292-.479,5.292-1.719l-5.821-16.191ZM593.9,207.35c2.776,1.786,3.484-2.5.966-3.923-3.088-1.571-5.746-3.084-8.828-4.653-2.982-1.86-9.217-2.114-5.821,0,4.961,3.1,8.714,5.473,13.683,8.576Zm.743,1.627L578.442,198.6c-2.221-1.86-8.349-2.114-5.819,0l17.348,14.5c4.166,3.169,7.211-1.817,4.676-4.123Zm-23.639-10.555c-1.463-1.86-7.481-2.114-5.821,0l12.528,15.949c.959,1.224,5.488,1.694,7.679,1.694s4.922-.47,3.96-1.694l-18.347-15.949Zm-7.536-.169c-.7-1.871-6.609-2.127-5.821,0L563.6,214.3c.456,1.232,4.791,1.7,6.982,1.7s5.115-.472,4.66-1.7l-11.771-16.049Zm-58.761,9.1c-2.776,1.786-3.482-2.5-.966-3.923,3.088-1.571,5.748-3.084,8.828-4.653,2.982-1.86,9.217-2.114,5.821,0-4.961,3.1-8.714,5.473-13.683,8.576Zm-.743,1.627,16.205-10.38c2.22-1.86,8.349-2.114,5.821,0l-17.35,14.5c-4.166,3.169-7.211-1.817-4.676-4.123Zm23.639-10.555c1.463-1.86,7.481-2.114,5.821,0L520.9,214.371c-.959,1.224-5.488,1.694-7.679,1.694s-4.922-.47-3.96-1.694l18.347-15.949Zm7.536-.169c.7-1.871,6.61-2.127,5.821,0l-5.95,16.049c-.456,1.232-4.789,1.7-6.982,1.7s-5.115-.472-4.66-1.7l11.771-16.049Zm7.384-.162c0-1.89,5.821-2.146,5.821,0v16.191c0,1.24-4.158,1.719-6.349,1.719s-5.292-.479-5.292-1.719l5.821-16.191Z" transform="translate(0 20.981)"/><path class="k" d="M524.986,192.928q10.27.016,20.734.343,11.029.34,21.783,1.011a1.471,1.471,0,0,1-.173,2.936q-10.841-.674-21.689-1.011-10.117-.312-20.655-.331v-2.949Zm6.464,5.163c0-1.89-5.821-2.146-5.821,0v16.191c0,1.24,4.158,1.719,6.349,1.719s5.292-.479,5.292-1.719l-5.821-16.191Zm37.815,9.259c2.776,1.786,3.484-2.5.966-3.923-3.088-1.571-5.746-3.084-8.828-4.653-2.982-1.86-9.217-2.114-5.821,0,4.961,3.1,8.714,5.473,13.683,8.576Zm.743,1.627L553.8,198.6c-2.221-1.86-8.349-2.114-5.819,0l17.348,14.5c4.166,3.169,7.211-1.817,4.676-4.123Zm-23.639-10.555c-1.463-1.86-7.481-2.114-5.821,0l12.528,15.949c.959,1.224,5.488,1.694,7.679,1.694s4.922-.47,3.96-1.694l-18.347-15.949Zm-7.536-.169c-.7-1.871-6.609-2.127-5.821,0l5.95,16.049c.456,1.232,4.791,1.7,6.982,1.7s5.115-.472,4.66-1.7l-11.771-16.049Z" transform="translate(24.639 20.981)"/><path class="a" d="M524.217,177.507a.738.738,0,1,1,0,1.475h-2.489v1.682a2.212,2.212,0,1,1-4.424,0v-2.939a2.212,2.212,0,0,1,4.414-.219Z" transform="translate(16.334 2.154)"/><path class="b" d="M532.309,178.982h-2.578a.738.738,0,1,1,0-1.475h2.589a2.212,2.212,0,0,1,4.414.219v2.939a2.212,2.212,0,1,1-4.424,0v-1.682Z" transform="translate(28.97 2.154)"/><path class="l" d="M525.222,182.085h4.335a2.387,2.387,0,0,1,2.383,2.381v7.5a2.389,2.389,0,0,1-2.383,2.381h-4.335a2.389,2.389,0,0,1-2.383-2.381v-7.5a2.387,2.387,0,0,1,2.383-2.381Z" transform="translate(22.318 9.258)"/><path class="m" d="M524.986,182.085h2.25a2.387,2.387,0,0,1,2.383,2.381v7.5a2.389,2.389,0,0,1-2.383,2.381h-2.25V182.085Z" transform="translate(24.639 9.258)"/><path class="a" d="M527.942,183.126a.589.589,0,1,1,1.178,0v9.2a.589.589,0,1,1-1.178,0v-9.2Zm-4.212,0a.59.59,0,1,1,1.18,0v9.2a.59.59,0,0,1-1.18,0v-9.2Zm2.106,0a.59.59,0,1,1,1.18,0v9.2a.59.59,0,0,1-1.18,0v-9.2Z" transform="translate(23.281 9.745)"/><path class="b" d="M526.584,183.126a.589.589,0,1,1,1.178,0v9.2a.589.589,0,1,1-1.178,0v-9.2Zm-1.6-.585v10.37a.532.532,0,0,0,.081.006.59.59,0,0,0,.591-.589v-9.2a.591.591,0,0,0-.591-.591.536.536,0,0,0-.081.006Z" transform="translate(24.639 9.745)"/></g></svg>