<svg xmlns="http://www.w3.org/2000/svg" xmlns:xlink="http://www.w3.org/1999/xlink" width="1079" height="519" viewBox="0 0 1079 519"><defs><style>.a,.g{fill:none;}.b,.h{fill:#fff;}.c{isolation:isolate;}.d{clip-path:url(#c);}.e{fill:#c21f25;}.f{fill:#e6e6e6;}.g{stroke:#fff;stroke-width:1.046px;}.h{font-size:30px;font-family:OpenSans-Bold, Open Sans;font-weight:700;}.i{fill:#383941;font-size:20px;font-family:OpenSans, Open Sans;}.j{filter:url(#a);}</style><filter id="a" x="0" y="0" width="1079" height="519" filterUnits="userSpaceOnUse"><feOffset dy="10" input="SourceAlpha"/><feGaussianBlur stdDeviation="12.5" result="b"/><feFlood flood-opacity="0.161"/><feComposite operator="in" in2="b"/><feComposite in="SourceGraphic"/></filter><clipPath id="c"><path class="a" d="M19.127-158.388C8.563-158.388,0-146.73,0-132.347H0V258.7c0,14.38,8.563,26.041,19.127,26.041H984.873c10.564,0,19.127-11.661,19.127-26.041h0V-132.347c0-14.383-8.563-26.041-19.127-26.041H19.127Z" transform="translate(0 158.388)"/></clipPath></defs><g transform="translate(-100.5 -2806.5)"><g class="j" transform="matrix(1, 0, 0, 1, 100.5, 2806.5)"><rect class="b" width="1004" height="444" rx="18" transform="translate(37.5 27.5)"/></g><g class="c"><g class="d" transform="translate(138 2834.446)"><path class="e" d="M.006-159.508H182.051V-45.354H.006Zm182.045,0H388.465V-45.354H182.051Zm206.414,0H607.436V-45.354H388.465Zm218.971,0h396.545V-45.354H607.436Z" transform="translate(0.006 156.375)"/><path class="b" d="M.006-118.706H182.051V37.21H.006Zm388.459,0H607.436V37.21H388.465ZM.006,37.21H182.051v84.279H.006Zm388.459,0H607.436v84.279H388.465ZM.006,121.486H182.051v91.9H.006Zm388.459,0H607.436v91.9H388.465Z" transform="translate(0.006 229.726)"/><path class="f" d="M88.6-118.706H295.013V37.21H88.6Zm0,155.916H295.013v84.279H88.6Zm0,84.277H295.013v91.9H88.6Z" transform="translate(93.459 229.726)"/><path class="f" d="M295.614-118.706H692.159V37.21H295.614Zm0,155.916H692.159v84.279H295.614Zm0,84.277H692.159v91.9H295.614Z" transform="translate(311.829 229.726)"/><g transform="translate(-1.063 -3.135)"><path class="g" d="M0,0H183.12"/></g><g transform="translate(0.012 -1.671)"><path class="g" d="M0,71.471V-39.756" transform="translate(0 39.756)"/></g><g transform="translate(182.058 -3.135)"><path class="g" d="M0,0H206.414"/></g><g transform="translate(182.058 -1.671)"><path class="g" d="M0,71.471V-39.756" transform="translate(0 39.756)"/></g><g transform="translate(388.472 -3.135)"><path class="g" d="M0,0H218.971"/></g><g transform="translate(388.472 -1.671)"><path class="g" d="M0,71.471V-39.756" transform="translate(0 39.756)"/></g><g transform="translate(607.442 -3.135)"><path class="g" d="M0,0H397.62"/></g><g transform="translate(607.442 -1.671)"><path class="g" d="M0,71.471V-39.756" transform="translate(0 39.756)"/></g><g transform="translate(1003.988 -1.671)"><path class="g" d="M0,71.471V-39.756" transform="translate(0 39.756)"/></g><g transform="translate(-1.063 111.02)"><path class="g" d="M0,0H183.12"/></g><g transform="translate(0.012 112.483)"><path class="g" d="M0,98.306V-54.683" transform="translate(0 54.683)"/></g><g transform="translate(182.058 111.02)"><path class="g" d="M0,0H206.414"/></g><g transform="translate(182.058 112.483)"><path class="g" d="M0,98.306V-54.683" transform="translate(0 54.683)"/></g><g transform="translate(388.472 111.02)"><path class="g" d="M0,0H218.971"/></g><g transform="translate(388.472 112.483)"><path class="g" d="M0,98.306V-54.683" transform="translate(0 54.683)"/></g><g transform="translate(607.442 111.02)"><path class="g" d="M0,0H397.62"/></g><g transform="translate(607.442 112.483)"><path class="g" d="M0,98.306V-54.683" transform="translate(0 54.683)"/></g><g transform="translate(1003.988 112.483)"><path class="g" d="M0,98.306V-54.683" transform="translate(0 54.683)"/></g><g transform="translate(-1.063 266.935)"><path class="g" d="M0,0H183.12"/></g><g transform="translate(0.012 268.398)"><path class="g" d="M0,52.275V-29.078" transform="translate(0 29.078)"/></g><g transform="translate(182.058 266.935)"><path class="g" d="M0,0H206.414"/></g><g transform="translate(182.058 268.398)"><path class="g" d="M0,52.275V-29.078" transform="translate(0 29.078)"/></g><g transform="translate(388.472 266.935)"><path class="g" d="M0,0H218.971"/></g><g transform="translate(388.472 268.398)"><path class="g" d="M0,52.275V-29.078" transform="translate(0 29.078)"/></g><g transform="translate(607.442 266.935)"><path class="g" d="M0,0H397.62"/></g><g transform="translate(607.442 268.398)"><path class="g" d="M0,52.275V-29.078" transform="translate(0 29.078)"/></g><g transform="translate(1003.988 268.398)"><path class="g" d="M0,52.275V-29.078" transform="translate(0 29.078)"/></g><g transform="translate(-1.063 351.214)"><path class="g" d="M0,0H183.12"/></g><g transform="translate(0.012 352.678)"><path class="g" d="M0,57.17V-31.8" transform="translate(0 31.801)"/></g><g transform="translate(182.058 351.214)"><path class="g" d="M0,0H206.414"/></g><g transform="translate(182.058 352.678)"><path class="g" d="M0,57.17V-31.8" transform="translate(0 31.801)"/></g><g transform="translate(388.472 351.214)"><path class="g" d="M0,0H218.971"/></g><g transform="translate(388.472 352.678)"><path class="g" d="M0,57.17V-31.8" transform="translate(0 31.801)"/></g><g transform="translate(607.442 351.214)"><path class="g" d="M0,0H397.62"/></g><g transform="translate(607.442 352.678)"><path class="g" d="M0,57.17V-31.8" transform="translate(0 31.801)"/></g><g transform="translate(1003.988 352.678)"><path class="g" d="M0,57.17V-31.8" transform="translate(0 31.801)"/></g><g transform="translate(-1.063 443.113)"><path class="g" d="M0,0H183.12"/></g><g transform="translate(182.058 443.113)"><path class="g" d="M0,0H206.414"/></g><g transform="translate(388.472 443.113)"><path class="g" d="M0,0H218.971"/></g><g transform="translate(607.442 443.113)"><path class="g" d="M0,0H397.62"/></g><g transform="translate(250.914 33.852)"><text class="h" transform="translate(0 32)"><tspan x="0" y="0">2019</tspan></text><text class="h" transform="translate(212.678 32)"><tspan x="0" y="0">2020</tspan></text><text class="h" transform="translate(476.298 32)"><tspan x="0" y="0">Difference</tspan></text></g><g transform="translate(16.619 134.281)"><text class="i" transform="translate(4.664 38.558)"><tspan x="0" y="0">Average Work </tspan></text><text class="i" transform="translate(51.97 73.674)"><tspan x="0" y="0">Rate</tspan></text><text class="i" transform="translate(183.721 38.558)"><tspan x="0" y="0">8.2 acres / hour / </tspan></text><text class="i" transform="translate(225.611 73.674)"><tspan x="0" y="0">machine</tspan></text><text class="i" transform="translate(396.415 38.558)"><tspan x="0" y="0">9.3 acres / hour / </tspan></text><text class="i" transform="translate(438.305 73.674)"><tspan x="0" y="0">machine</tspan></text><text class="i" transform="translate(623.037 21)"><tspan x="0" y="0">13% improvement resulting in an </tspan></text><text class="i" transform="translate(610.614 56.116)"><tspan x="0" y="0">extra 10 acres every operating hour </tspan></text><text class="i" transform="translate(736.003 91.232)"><tspan x="0" y="0">of harvest.</tspan></text><text class="i" transform="translate(0 176.213)"><tspan x="0" y="0">Average Speed</tspan></text><text class="i" transform="translate(227.524 176.213)"><tspan x="0" y="0">3.0 mph</tspan></text><text class="i" transform="translate(434.071 176.213)"><tspan x="0" y="0">2.85 mph</tspan></text><text class="i" transform="translate(723 176.213)"><tspan x="0" y="0">5% reduction</tspan></text><text class="i" transform="translate(8.081 246.737)"><tspan x="0" y="0">Total Harvest </tspan></text><text class="i" transform="translate(43.889 281.853)"><tspan x="0" y="0">Hours</tspan></text><text class="i" transform="translate(226.277 264.295)"><tspan x="0" y="0">3,630.26</tspan></text><text class="i" transform="translate(454.124 264.295)"><tspan x="0" y="0">3,353</tspan></text><text class="i" transform="translate(650.182 264.295)"><tspan x="0" y="0">277.26 less separator hours</tspan></text></g></g></g></g></svg>